<svg id="Layer_1" height="512" viewBox="0 0 512 512" width="512" xmlns="http://www.w3.org/2000/svg" data-name="Layer 1"><path d="m256 11c135.31 0 245 109.69 245 245s-109.69 245-245 245-245-109.69-245-245 109.69-245 245-245z" fill="#fb6771"/><path d="m256 43.89c116.96 0 212.11 95.15 212.11 212.11s-95.15 212.11-212.11 212.11-212.11-95.15-212.11-212.11 95.15-212.11 212.11-212.11z" fill="#76d5ff"/><path d="m388.04 289.61-61.7 23.34a30.424 30.424 0 0 0 -26.43-29.35l-8.99-1.19h-.01l-31.58-4.19a48.662 48.662 0 0 1 -20.37-7.59l-3.92-2.58a68.1 68.1 0 0 0 -70.92-2.44s-13.17 8.87-14.14 9.41a283.938 283.938 0 0 0 -33.89 21.84l-23.51 18c7.54 22.4 42.88 55.99 42.88 55.99l45.62-28.47a22.92 22.92 0 0 1 16.89 0l59.51 19.32a74.492 74.492 0 0 0 46.81-.4l115.13-58.47a24.662 24.662 0 0 0 -31.38-13.22z" fill="#e1b7a3"/><path d="m357.53 279.1-38.67 14.67a30.353 30.353 0 0 1 7.48 19.18l55.91-21.15c-3.85-9.48-15.06-16.08-24.72-12.7z" fill="#c9a293"/><path d="m349.66 282.09-30.8 11.68a30.319 30.319 0 0 0 -18.95-10.17l-8.99-1.19 25.65-9.84c11.68-4.85 25.4-.52 33.09 9.52z" fill="#b79388"/><path d="m301.46 199.11c-6.14 16.91-39.6 27.49-53.1 28.27a120.924 120.924 0 0 1 -53.59-9.09c-5.3-2.26-27.52-12.25-41.93-34.03-9.47-14.31-10.27-32.35-10.03-40.91.06-1.9 2.81-2.89 4.6-1.65a79.249 79.249 0 0 0 18.61 9.37c13.25 4.64 23.73 11.75 49.21 3.9 8.73-2.68 26.14-10.99 51.61-4.69 12.98 3.21 35.85 15.95 34.62 48.83z" fill="#9be147"/><path d="m73.89 256c0-111.916 87.124-203.851 197.11-211.573-4.957-.348-9.956-.537-15-.537-116.96 0-212.11 95.15-212.11 212.11s95.15 212.11 212.11 212.11c5.044 0 10.043-.189 15-.537-109.986-7.722-197.11-99.657-197.11-211.573z" fill="#61bad8"/><path d="m164.12 265.61s-13.17 8.87-14.14 9.41a283.938 283.938 0 0 0 -33.89 21.84l-23.51 18c7.54 22.4 42.88 55.99 42.88 55.99l18.606-11.612c-4.136-4.427-8.934-9.8-13.564-15.522a32.935 32.935 0 0 1 5.588-46.856 283.938 283.938 0 0 1 33.89-21.84c.97-.54 14.14-9.41 14.14-9.41a68.033 68.033 0 0 1 18.463-7.107 68.1 68.1 0 0 0 -48.463 7.107z" fill="#c49c8c"/><g fill="#284268"><path d="m256 6a250 250 0 0 0 -176.776 426.776 250 250 0 1 0 353.552-353.553 248.36 248.36 0 0 0 -176.776-73.223zm169.706 419.706a240 240 0 0 1 -339.412-339.412 240 240 0 0 1 339.412 339.412z"/><path d="m256 38.89c-119.715 0-217.11 97.4-217.11 217.11s97.395 217.11 217.11 217.11 217.11-97.395 217.11-217.11-97.395-217.11-217.11-217.11zm0 424.22c-114.2 0-207.11-92.91-207.11-207.11s92.91-207.11 207.11-207.11 207.11 92.91 207.11 207.11-92.91 207.11-207.11 207.11z"/><path d="m192.8 222.887a125.638 125.638 0 0 0 48.555 9.7q3.564 0 7.29-.211c12.33-.717 44.464-9.71 55.219-26.939a51.394 51.394 0 0 1 13.172 8.186c11.066 9.558 17.251 23.582 18.383 41.683a5 5 0 0 0 4.985 4.688c.106 0 .211 0 .317-.01a5 5 0 0 0 4.678-5.3c-1.305-20.885-8.649-37.245-21.827-48.627a61.947 61.947 0 0 0 -17.087-10.382c-.429-30.079-20.669-45.849-38.45-50.247-23.591-5.832-40.5.031-50.6 3.535-1.411.49-2.628.912-3.681 1.236-20.1 6.192-29.433 2.558-40.243-1.65-1.88-.733-3.825-1.489-5.839-2.195a74.055 74.055 0 0 1 -17.426-8.771 8.336 8.336 0 0 0 -8.4-.539 7.116 7.116 0 0 0 -4.03 6.172c-.276 9.815.766 28.558 10.857 43.809 14.166 21.41 35.581 32.212 44.127 35.862zm-28.434-67.1c1.852.648 3.632 1.341 5.516 2.074 11.5 4.476 23.389 9.106 46.815 1.889 1.22-.376 2.576-.846 4.013-1.344 9.056-3.141 24.211-8.4 44.925-3.276 5.011 1.24 28.607 8.6 30.712 37.276a66.48 66.48 0 0 0 -20.543-1.71c-13.292 1.113-27.175-2.628-41.268-11.121a5 5 0 0 0 -5.162 8.566c15.933 9.6 31.835 13.812 47.264 12.52a56.611 56.611 0 0 1 17.315 1.489c-3.6 4.445-9.893 8.791-18.335 12.579-10.651 4.782-21.749 7.322-27.553 7.66a115.739 115.739 0 0 1 -51.338-8.7c-7.72-3.3-27.044-13.031-39.718-32.186-7.371-11.141-8.979-25.153-9.2-33.58a85.638 85.638 0 0 0 16.56 7.867z"/><path d="m386.268 284.931-1.653.625c-6.272-9.746-18.456-14.778-28.738-11.171-.04.014-.079.028-.118.044l-4.606 1.746c-9.441-9.811-24.178-13.306-36.432-8.252l-24.411 9.364-30.324-4.019a43.943 43.943 0 0 1 -18.278-6.817l-3.918-2.579a72.838 72.838 0 0 0 -76.124-2.621c-.115.065-.228.135-.337.208-6.1 4.105-13.023 8.738-13.8 9.206a286.874 286.874 0 0 0 -34.478 22.223l-23.512 18.012a5 5 0 0 0 -1.7 5.564c7.843 23.306 42.7 56.608 44.178 58.016a5 5 0 0 0 6.091.617l45.211-28.216a17.819 17.819 0 0 1 12.8.15c.1.039.2.076.3.109l59.522 19.319a80.074 80.074 0 0 0 49.956-.424l115.782-58.745a5 5 0 0 0 2.321-6.452 29.626 29.626 0 0 0 -37.732-15.907zm-27.029-1.131c5.534-1.906 11.773.97 15.617 5.446l-44.356 16.788a35.438 35.438 0 0 0 -3.853-9.871zm-40.876-6.568c.042-.015.084-.032.126-.049 7.169-2.978 15.617-1.647 22.081 3l-20.432 7.748a35.293 35.293 0 0 0 -11.169-7.1zm94.1 23.521-110.108 55.92a69.979 69.979 0 0 1 -43.331.263l-59.364-19.268a27.784 27.784 0 0 0 -20.424.064l-43.086 26.795c-7.812-7.775-30.009-30.751-37.553-47.973l20.533-15.727a277.2 277.2 0 0 1 33.3-21.443c.986-.555 9.317-6.148 14.321-9.518a62.881 62.881 0 0 1 65.544 2.358l3.918 2.579a54.007 54.007 0 0 0 22.463 8.379l40.585 5.379a25.462 25.462 0 0 1 22.031 23.279l-28.73-5.138a178.058 178.058 0 0 0 -32.284-2.77 5 5 0 0 0 .028 10h.029a167.762 167.762 0 0 1 30.467 2.614l34.408 6.154c3.737.738 6.266-2.825 6.045-6.261l58.558-22.158a19.648 19.648 0 0 1 22.647 6.475z"/></g></svg>