<svg id="Layer_1" height="512" viewBox="0 0 512 512" width="512" xmlns="http://www.w3.org/2000/svg" data-name="Layer 1"><path d="m414.552 456.356-89.69 38.79c-15.91-6.63-28.72-18.67-38.76-31.95 0 0 53.69 1.74 77.36-43.79l.01-.01c17.38 22.07 51.08 36.96 51.08 36.96z" fill="#e59683"/><path d="m363.472 419.4-.01.01c-23.67 45.53-77.36 43.79-77.36 43.79a164.716 164.716 0 0 1 -13.2-20.57s48.65 5.54 81.34-41.11a46.859 46.859 0 0 0 9.23 17.88z" fill="#50b568"/><path d="m356.833 254.226-76.661-237.226a2.287 2.287 0 0 0 -1.92-1.57c-5.86-.63-27.15-1.03-30.179 25.94l7.989 360.78a205.99 205.99 0 0 0 16.84 40.48s48.65 5.54 81.34-41.11c-6.53-27.27 1.48-113.53 3.76-136.32a26.847 26.847 0 0 0 -1.169-10.974z" fill="#e59683"/><path d="m248.073 41.366-.021-.37c-2.92-26.9-21.77-26.36-27.25-25.62a2.261 2.261 0 0 0 -1.88 1.65l-66.57 237.2a26.783 26.783 0 0 0 -1.17 10.96c2.28 22.79 10.29 109.06 3.76 136.33 0 0 27.67 49.05 86.131 43.87a136.637 136.637 0 0 0 14.989-43.24z" fill="#f3a38d"/><path d="m154.942 401.516s27.67 49.05 86.13 43.87a134.269 134.269 0 0 1 -13.072 19.55c-63.92 0-83.38-44.18-83.38-44.18h-.01c4.912-5.92 8.69-12.38 10.332-19.24z" fill="#50b568"/><path d="m228 464.936a134.184 134.184 0 0 1 -18.25 18.69l-115.12-27.27s32.32-14.28 49.98-35.6h.01s19.462 44.18 83.38 44.18z" fill="#f3a38d"/><path d="m154.942 401.516a93.5 93.5 0 0 0 18.7 21.819 43.259 43.259 0 0 0 6.3-13.819c6.53-27.27-1.48-113.54-3.76-136.33a26.783 26.783 0 0 1 1.17-10.96l66.278-236.159c-6.741-11.687-18.656-11.254-22.83-10.691a2.261 2.261 0 0 0 -1.88 1.65l-66.57 237.2a26.783 26.783 0 0 0 -1.17 10.96c2.282 22.79 10.292 109.06 3.762 136.33z" fill="#d68c7b"/><path d="m158.815 439.632a92.832 92.832 0 0 0 10.8-10.876 64.321 64.321 0 0 0 4.035-5.421 93.5 93.5 0 0 1 -18.7-21.819c-1.64 6.86-5.42 13.32-10.33 19.24h.01s3.959 9 14.185 18.876z" fill="#3f9351"/><path d="m158.815 439.632c-10.226-9.876-14.193-18.876-14.193-18.876h-.01c-17.66 21.32-49.98 35.6-49.98 35.6l27.94 6.619c6.497-3.156 22.604-11.557 36.243-23.343z" fill="#d68c7b"/><path d="m417.981 452.634c-.5-.223-50.589-22.636-57.473-51.423-4.987-20.858-1.266-83.242 3.88-134.668a31.744 31.744 0 0 0 -1.387-13l-76.661-237.228a7.292 7.292 0 0 0 -6.148-5.007c-4.171-.451-21.416-1.3-30.47 13.716a27.109 27.109 0 0 0 -7.068-8.46c-8-6.267-17.431-5.788-21.11-5.292a7.273 7.273 0 0 0 -6.029 5.255l-66.547 237.116a31.725 31.725 0 0 0 -1.357 12.894c5.147 51.428 8.869 113.815 3.881 134.674-6.872 28.738-56.97 51.2-57.475 51.423a5 5 0 0 0 4.041 9.148c1.591-.7 28.579-12.8 47.045-31.71a82.763 82.763 0 0 0 15.39 17.421c11.051 9.5 29.8 20.611 58.3 22.874a127.657 127.657 0 0 1 -10.854 10.29 5 5 0 0 0 6.441 7.651 140.784 140.784 0 0 0 43.97-67.3 219.474 219.474 0 0 0 10.639 23.147c15 28.094 34.139 47.616 55.354 56.455a5 5 0 1 0 3.845-9.23c-11.932-4.972-22.069-13.28-30.555-22.885a108.9 108.9 0 0 0 21.207-4.509c20.249-6.5 36.3-18.6 46.846-35.18 18.472 19.636 46.627 32.252 48.253 32.97a5 5 0 1 0 4.039-9.147zm-191.007 8.113c-23.977-.438-44.018-7.317-59.574-20.506a71.216 71.216 0 0 1 -15.436-18.1 59.8 59.8 0 0 0 5.706-9.07 106.962 106.962 0 0 0 16.661 17.055 93.5 93.5 0 0 0 59.069 21.488q-3.011 4.698-6.426 9.133zm12.327-19.3c-21.678 1.288-41.3-5.023-58.355-18.833a94.6 94.6 0 0 1 -19.282-21.158c5.827-29.7-1.626-111.165-4.1-135.913a21.777 21.777 0 0 1 .953-8.92c.02-.062.038-.124.056-.186l66.066-235.413a17.845 17.845 0 0 1 11.85 3.414c4.368 3.419 7.054 9.42 7.988 17.838l.01.171a5.027 5.027 0 0 0 .042.664l1.737 27.849c-5.845-4.624-12.688-4.353-20.612-4.033a6.906 6.906 0 0 0 -6.4 6l-35.454 162.673a5 5 0 1 0 9.8 2l35.113-160.782c9.379-.31 12.644.4 16.938 10.536 1.9 4.483 2.9 10.394 2.887 17.09v.2l1.609 41.716a34.175 34.175 0 0 0 -16.113-8.329 7.229 7.229 0 0 0 -8.679 6.011c-.013.092-.025.184-.033.276l-12.745 135.354a5 5 0 1 0 9.956.937l12.429-131.954a24.251 24.251 0 0 1 16.211 23.636v.226l2.953 199.747c0 .073 0 .146.008.218a132.485 132.485 0 0 1 -14.834 68.963zm38.151-2.786a208.405 208.405 0 0 1 -14.895-36.069 141.755 141.755 0 0 0 1.565-30.582l-2.946-199.235c.01-.161.038-.317.033-.482a24.254 24.254 0 0 1 16.258-23.652l14.31 132.04a5 5 0 0 0 9.942-1.077l-14.67-135.354c-.007-.069-.016-.137-.026-.206a7.229 7.229 0 0 0 -8.676-6.012 34.179 34.179 0 0 0 -18.112 10.329l-1.3-33.8c0-6.646 1.432-21.98 3.5-26.574 4.72-10.487 11.033-11.924 15.185-11.487l37.4 161.163a5 5 0 1 0 9.772-2.124l-37.692-162.665a7.328 7.328 0 0 0 -5.525-5.813c-3.86-.926-15.959-2.5-24.87 10.677l-2.205-35.369c.906-7.275 4.956-22.258 22.877-21.262l76.106 235.514a21.8 21.8 0 0 1 .953 8.926c-2.471 24.685-9.892 105.8-4.146 135.683-12.614 17.267-28.907 28.8-48.482 34.258a84.374 84.374 0 0 1 -24.356 3.171zm12.592 20.361c-2.487-3.415-4.8-6.9-6.929-10.389 15.261-.656 46.158-6.011 70.992-36a57.653 57.653 0 0 0 4.844 8.032c-19.707 34.306-58.878 37.985-68.907 38.355z" fill="#314a68"/></svg>